<svg width="1340" height="368" viewBox="0 0 1340 368" fill="none" xmlns="http://www.w3.org/2000/svg">
<g opacity="0.5">
<rect x="1241" y="184.497" width="70" height="70" transform="rotate(-45 1241 184.497)" fill="black"/>
<rect x="1241.71" y="184.497" width="69" height="69" transform="rotate(-45 1241.71 184.497)" stroke="#F0C146" stroke-opacity="0.8"/>
</g>
<g opacity="0.8">
<rect y="185.497" width="70" height="70" transform="rotate(-45 0 185.497)" fill="black"/>
<rect x="0.707107" y="185.497" width="69" height="69" transform="rotate(-45 0.707107 185.497)" stroke="#F0C146" stroke-opacity="0.8"/>
</g>
<rect x="1126" y="184.64" width="90" height="90" transform="rotate(-45 1126 184.64)" fill="black"/>
<rect x="1127.41" y="184.64" width="88" height="88" transform="rotate(-45 1127.41 184.64)" stroke="#F0C146" stroke-opacity="0.4" stroke-width="2"/>
<rect x="78" y="183.64" width="90" height="90" transform="rotate(-45 78 183.64)" fill="black"/>
<rect x="79.4142" y="183.64" width="88" height="88" transform="rotate(-45 79.4142 183.64)" stroke="#F0C146" stroke-opacity="0.4" stroke-width="2"/>
<rect x="993" y="184.782" width="110" height="110" transform="rotate(-45 993 184.782)" fill="black"/>
<rect x="995.121" y="184.782" width="107" height="107" transform="rotate(-45 995.121 184.782)" stroke="#F0C146" stroke-opacity="0.6" stroke-width="3"/>
<rect x="185" y="183.782" width="110" height="110" transform="rotate(-45 185 183.782)" fill="black"/>
<rect x="187.121" y="183.782" width="107" height="107" transform="rotate(-45 187.121 183.782)" stroke="#F0C146" stroke-opacity="0.6" stroke-width="3"/>
<rect x="314" y="184.995" width="140" height="140" transform="rotate(-45 314 184.995)" fill="black"/>
<rect x="316.828" y="184.995" width="136" height="136" transform="rotate(-45 316.828 184.995)" stroke="#F0C146" stroke-opacity="0.8" stroke-width="4"/>
<rect x="819" y="184.995" width="140" height="140" transform="rotate(-45 819 184.995)" fill="black"/>
<rect x="821.828" y="184.995" width="136" height="136" transform="rotate(-45 821.828 184.995)" stroke="#F0C146" stroke-opacity="0.8" stroke-width="4"/>
<rect x="486.536" y="183.848" width="255" height="255" transform="rotate(-45 486.536 183.848)" fill="black" stroke="#F0C146" stroke-width="5"/>
</svg>
